<?xml version="1.0" encoding="UTF-8" standalone="no"?>
<!DOCTYPE svg PUBLIC "-//W3C//DTD SVG 1.0//EN" "http://www.w3.org/TR/2001/REC-SVG-20010904/DTD/svg10.dtd">
<!-- Generated by Microsoft Visio 11.0, SVG Export, v1.0 przykladowy scenariusz ge.svg Page-1 -->
<svg xmlns="http://www.w3.org/2000/svg" xmlns:xlink="http://www.w3.org/1999/xlink" xmlns:ev="http://www.w3.org/2001/xml-events"
		xmlns:v="http://schemas.microsoft.com/visio/2003/SVGExtensions/" width="8.26772in" height="11.6929in"
		viewBox="0 0 595.276 841.89" xml:space="preserve" color-interpolation-filters="sRGB" class="st8">
	<v:documentProperties v:langID="1033" v:metric="true" v:viewMarkup="false">
		<v:userDefs>
			<v:ud v:nameU="msvSubprocessMaster" v:prompt="" v:val="VT4(Rectangle)"/>
			<v:ud v:nameU="msvNoAutoConnect" v:val="VT0(1):26"/>
		</v:userDefs>
	</v:documentProperties>

	<style type="text/css">
	<![CDATA[
		.st1 {visibility:visible}
		.st2 {fill:#cdcdcd;fill-opacity:0.5;stroke:#cdcdcd;stroke-linecap:round;stroke-linejoin:round;stroke-opacity:0.5;stroke-width:0.25}
		.st3 {fill:url(#grad30-6);stroke:#404040;stroke-linecap:round;stroke-linejoin:round;stroke-width:0.25}
		.st4 {fill:#000000;font-family:Calibri;font-size:0.666664em}
		.st5 {font-size:1em}
		.st6 {fill:url(#grad30-14);stroke:#404040;stroke-linecap:round;stroke-linejoin:round;stroke-width:0.25}
		.st7 {fill:url(#grad30-64);stroke:#404040;stroke-linecap:round;stroke-linejoin:round;stroke-width:0.25}
		.st8 {fill:none;fill-rule:evenodd;font-size:12px;overflow:visible;stroke-linecap:square;stroke-miterlimit:3}
	]]>
	</style>

	<defs id="Patterns_And_Gradients">
		<linearGradient id="grad30-6" v:fillPattern="30" v:foreground="#e1a900" v:background="#ffc000" x1="0" y1="1" x2="0" y2="0">
			<stop offset="0" style="stop-color:#e1a900;stop-opacity:1"/>
			<stop offset="1" style="stop-color:#ffc000;stop-opacity:1"/>
		</linearGradient>
		<linearGradient id="grad30-14" v:fillPattern="30" v:foreground="#0099d2" v:background="#00b0f0" x1="0" y1="1" x2="0" y2="0">
			<stop offset="0" style="stop-color:#0099d2;stop-opacity:1"/>
			<stop offset="1" style="stop-color:#00b0f0;stop-opacity:1"/>
		</linearGradient>
		<linearGradient id="grad30-64" v:fillPattern="30" v:foreground="#85ca39" v:background="#92d050" x1="0" y1="1" x2="0" y2="0">
			<stop offset="0" style="stop-color:#85ca39;stop-opacity:1"/>
			<stop offset="1" style="stop-color:#92d050;stop-opacity:1"/>
		</linearGradient>
	</defs>
	<g v:mID="0" v:index="1" v:groupContext="foregroundPage">
		<v:userDefs>
			<v:ud v:nameU="msvThemeColors" v:val="VT0(36):26"/>
			<v:ud v:nameU="msvThemeEffects" v:val="VT0(16):26"/>
			<v:ud v:nameU="msvThemeOrder" v:val="VT0(0):26"/>
		</v:userDefs>
		<title>Page-1</title>
		<v:pageProperties v:drawingScale="0.0393701" v:pageScale="0.0393701" v:drawingUnits="24" v:shadowOffsetX="8.50394"
				v:shadowOffsetY="-8.50394"/>
		<g id="shape1-1" v:mID="1" v:groupContext="shape" transform="translate(113.386,-737.008)">
			<title>Rectangle</title>
			<desc>Uruchomić GesturesEditor</desc>
			<v:userDefs>
				<v:ud v:nameU="visVersion" v:val="VT0(14):26"/>
				<v:ud v:nameU="msvThemeColors" v:val="VT0(36):26"/>
				<v:ud v:nameU="msvThemeEffects" v:val="VT0(16):26"/>
			</v:userDefs>
			<v:textBlock v:margins="rect(4,4,4,4)" v:tabSpace="42.5197"/>
			<v:textRect cx="35.4331" cy="820.63" width="70.87" height="42.5197"/>
			<g id="shadow1-2" v:groupContext="shadow" v:shadowOffsetX="1.44" v:shadowOffsetY="-1.44" v:shadowType="1"
					transform="matrix(1,0,0,1,1.44,1.44)" class="st1">
				<rect x="0" y="799.37" width="70.8661" height="42.5197" class="st2"/>
			</g>
			<rect x="0" y="799.37" width="70.8661" height="42.5197" class="st3"/>
			<text x="17.66" y="818.23" class="st4" v:langID="1045"><v:paragraph v:horizAlign="1"/><v:tabList/>Uruchomić <tspan
						x="11.15" dy="1.2em" class="st5">GesturesEditor</tspan></text>		</g>
		<g id="shape2-9" v:mID="2" v:groupContext="shape" transform="translate(976.535,151.654) rotate(90) scale(-1,1)">
			<title>45 degree single</title>
			<v:userDefs>
				<v:ud v:nameU="visVersion" v:val="VT0(14):26"/>
				<v:ud v:nameU="msvThemeColors" v:val="VT0(36):26"/>
				<v:ud v:nameU="msvThemeEffects" v:val="VT0(16):26"/>
			</v:userDefs>
			<g id="shadow2-10" v:groupContext="shadow" v:shadowOffsetX="1.44" v:shadowOffsetY="-1.44" v:shadowType="1"
					transform="matrix(1,0,0,1,-1.44,-1.44)" class="st1">
				<path d="M0 827.72 L14.17 813.54 L14.17 822.9 L39.69 822.9 L39.69 832.54 L14.17 832.54 L14.17 841.89 L0 827.72 Z"
						class="st2"/>
			</g>
			<path d="M0 827.72 L14.17 813.54 L14.17 822.9 L39.69 822.9 L39.69 832.54 L14.17 832.54 L14.17 841.89 L0 827.72 Z"
					class="st6"/>
		</g>
		<g id="shape3-15" v:mID="3" v:groupContext="shape" transform="translate(113.386,-642.047)">
			<title>Rectangle.3</title>
			<desc>Załadować sieci neuronowe z bazy danych</desc>
			<v:userDefs>
				<v:ud v:nameU="visVersion" v:val="VT0(14):26"/>
				<v:ud v:nameU="msvThemeColors" v:val="VT0(36):26"/>
				<v:ud v:nameU="msvThemeEffects" v:val="VT0(16):26"/>
			</v:userDefs>
			<v:textBlock v:margins="rect(4,4,4,4)" v:tabSpace="42.5197"/>
			<v:textRect cx="35.4331" cy="820.63" width="70.87" height="42.5197"/>
			<g id="shadow3-16" v:groupContext="shadow" v:shadowOffsetX="1.44" v:shadowOffsetY="-1.44" v:shadowType="1"
					transform="matrix(1,0,0,1,1.44,1.44)" class="st1">
				<rect x="0" y="799.37" width="70.8661" height="42.5197" class="st2"/>
			</g>
			<rect x="0" y="799.37" width="70.8661" height="42.5197" class="st3"/>
			<text x="10.07" y="813.43" class="st4" v:langID="1045"><v:paragraph v:horizAlign="1"/><v:tabList/>Załadować sieci <tspan
						x="5.88" dy="1.2em" class="st5">neuronowe z bazy </tspan><tspan x="23.71" dy="1.2em" class="st5">danych</tspan></text>		</g>
		<g id="shape4-23" v:mID="4" v:groupContext="shape" transform="translate(976.535,246.614) rotate(90) scale(-1,1)">
			<title>45 degree single.4</title>
			<v:userDefs>
				<v:ud v:nameU="visVersion" v:val="VT0(14):26"/>
				<v:ud v:nameU="msvThemeColors" v:val="VT0(36):26"/>
				<v:ud v:nameU="msvThemeEffects" v:val="VT0(16):26"/>
			</v:userDefs>
			<g id="shadow4-24" v:groupContext="shadow" v:shadowOffsetX="1.44" v:shadowOffsetY="-1.44" v:shadowType="1"
					transform="matrix(1,0,0,1,-1.44,-1.44)" class="st1">
				<path d="M0 827.72 L14.17 813.54 L14.17 822.9 L39.69 822.9 L39.69 832.54 L14.17 832.54 L14.17 841.89 L0 827.72 Z"
						class="st2"/>
			</g>
			<path d="M0 827.72 L14.17 813.54 L14.17 822.9 L39.69 822.9 L39.69 832.54 L14.17 832.54 L14.17 841.89 L0 827.72 Z"
					class="st6"/>
		</g>
		<g id="shape5-28" v:mID="5" v:groupContext="shape" transform="translate(113.386,-542.835)">
			<title>Rectangle.5</title>
			<desc>Utworzyć nową sieć neuronową</desc>
			<v:userDefs>
				<v:ud v:nameU="visVersion" v:val="VT0(14):26"/>
				<v:ud v:nameU="msvThemeColors" v:val="VT0(36):26"/>
				<v:ud v:nameU="msvThemeEffects" v:val="VT0(16):26"/>
			</v:userDefs>
			<v:textBlock v:margins="rect(4,4,4,4)" v:tabSpace="42.5197"/>
			<v:textRect cx="35.4331" cy="820.63" width="70.87" height="42.5197"/>
			<g id="shadow5-29" v:groupContext="shadow" v:shadowOffsetX="1.44" v:shadowOffsetY="-1.44" v:shadowType="1"
					transform="matrix(1,0,0,1,1.44,1.44)" class="st1">
				<rect x="0" y="799.37" width="70.8661" height="42.5197" class="st2"/>
			</g>
			<rect x="0" y="799.37" width="70.8661" height="42.5197" class="st3"/>
			<text x="10.19" y="818.23" class="st4" v:langID="1045"><v:paragraph v:horizAlign="1"/><v:tabList/>Utworzyć nową <tspan
						x="9.68" dy="1.2em" class="st5">sieć neuronową</tspan></text>		</g>
		<g id="shape6-35" v:mID="6" v:groupContext="shape" transform="translate(976.535,354.331) rotate(90) scale(-1,1)">
			<title>45 degree single.6</title>
			<v:userDefs>
				<v:ud v:nameU="visVersion" v:val="VT0(14):26"/>
				<v:ud v:nameU="msvThemeColors" v:val="VT0(36):26"/>
				<v:ud v:nameU="msvThemeEffects" v:val="VT0(16):26"/>
			</v:userDefs>
			<g id="shadow6-36" v:groupContext="shadow" v:shadowOffsetX="1.44" v:shadowOffsetY="-1.44" v:shadowType="1"
					transform="matrix(1,0,0,1,-1.44,-1.44)" class="st1">
				<path d="M0 827.72 L14.17 813.54 L14.17 822.9 L43.94 822.9 L43.94 832.54 L14.17 832.54 L14.17 841.89 L0 827.72 Z"
						class="st2"/>
			</g>
			<path d="M0 827.72 L14.17 813.54 L14.17 822.9 L43.94 822.9 L43.94 832.54 L14.17 832.54 L14.17 841.89 L0 827.72 Z"
					class="st6"/>
		</g>
		<g id="shape7-40" v:mID="7" v:groupContext="shape" transform="translate(113.031,-435.309)">
			<title>Rectangle.7</title>
			<desc>Wprowadzić nazwy gestów</desc>
			<v:userDefs>
				<v:ud v:nameU="visVersion" v:val="VT0(14):26"/>
				<v:ud v:nameU="msvThemeColors" v:val="VT0(36):26"/>
				<v:ud v:nameU="msvThemeEffects" v:val="VT0(16):26"/>
			</v:userDefs>
			<v:textBlock v:margins="rect(4,4,4,4)" v:tabSpace="42.5197"/>
			<v:textRect cx="35.4331" cy="820.63" width="70.87" height="42.5197"/>
			<g id="shadow7-41" v:groupContext="shadow" v:shadowOffsetX="1.44" v:shadowOffsetY="-1.44" v:shadowType="1"
					transform="matrix(1,0,0,1,1.44,1.44)" class="st1">
				<rect x="0" y="799.37" width="70.8661" height="42.5197" class="st2"/>
			</g>
			<rect x="0" y="799.37" width="70.8661" height="42.5197" class="st3"/>
			<text x="4.03" y="818.23" class="st4" v:langID="1045"><v:paragraph v:horizAlign="1"/><v:tabList/>Wprowadzić nazwy <tspan
						x="23.69" dy="1.2em" class="st5">gestów</tspan></text>		</g>
		<g id="shape8-47" v:mID="8" v:groupContext="shape" transform="translate(976.535,457.795) rotate(90) scale(-1,1)">
			<title>45 degree single.8</title>
			<v:userDefs>
				<v:ud v:nameU="visVersion" v:val="VT0(14):26"/>
				<v:ud v:nameU="msvThemeColors" v:val="VT0(36):26"/>
				<v:ud v:nameU="msvThemeEffects" v:val="VT0(16):26"/>
			</v:userDefs>
			<g id="shadow8-48" v:groupContext="shadow" v:shadowOffsetX="1.44" v:shadowOffsetY="-1.44" v:shadowType="1"
					transform="matrix(1,0,0,1,-1.44,-1.44)" class="st1">
				<path d="M0 827.72 L14.17 813.54 L14.17 822.9 L39.69 822.9 L39.69 832.54 L14.17 832.54 L14.17 841.89 L0 827.72 Z"
						class="st2"/>
			</g>
			<path d="M0 827.72 L14.17 813.54 L14.17 822.9 L39.69 822.9 L39.69 832.54 L14.17 832.54 L14.17 841.89 L0 827.72 Z"
					class="st6"/>
		</g>
		<g id="shape9-52" v:mID="9" v:groupContext="shape" transform="translate(113.386,-334.488)">
			<title>Rectangle.9</title>
			<desc>Zapisać zmiany do bazy danych</desc>
			<v:userDefs>
				<v:ud v:nameU="visVersion" v:val="VT0(14):26"/>
				<v:ud v:nameU="msvThemeColors" v:val="VT0(36):26"/>
				<v:ud v:nameU="msvThemeEffects" v:val="VT0(16):26"/>
			</v:userDefs>
			<v:textBlock v:margins="rect(4,4,4,4)" v:tabSpace="42.5197"/>
			<v:textRect cx="35.4331" cy="820.63" width="70.87" height="42.5197"/>
			<g id="shadow9-53" v:groupContext="shadow" v:shadowOffsetX="1.44" v:shadowOffsetY="-1.44" v:shadowType="1"
					transform="matrix(1,0,0,1,1.44,1.44)" class="st1">
				<rect x="0" y="799.37" width="70.8661" height="42.5197" class="st2"/>
			</g>
			<rect x="0" y="799.37" width="70.8661" height="42.5197" class="st3"/>
			<text x="5.91" y="818.23" class="st4" v:langID="1045"><v:paragraph v:horizAlign="1"/><v:tabList/>Zapisać zmiany do <tspan
						x="15.4" dy="1.2em" class="st5">bazy danych</tspan></text>		</g>
		<g id="shape10-59" v:mID="10" v:groupContext="shape" transform="translate(238.11,-537.165)">
			<title>Rectangle.10</title>
			<desc>Parametry: Nazwa sieci: „Test” Liczba punktów: 4 Liczba wymia...</desc>
			<v:userDefs>
				<v:ud v:nameU="visVersion" v:val="VT0(14):26"/>
				<v:ud v:nameU="msvThemeColors" v:val="VT0(36):26"/>
				<v:ud v:nameU="msvThemeEffects" v:val="VT0(16):26"/>
			</v:userDefs>
			<v:textBlock v:margins="rect(4,4,4,4)" v:tabSpace="42.5197"/>
			<v:textRect cx="51.0236" cy="815.404" width="102.05" height="52.9724"/>
			<g id="shadow10-60" v:groupContext="shadow" v:shadowOffsetX="1.44" v:shadowOffsetY="-1.44" v:shadowType="1"
					transform="matrix(1,0,0,1,1.44,1.44)" class="st1">
				<rect x="0" y="788.917" width="102.047" height="52.9724" class="st2"/>
			</g>
			<rect x="0" y="788.917" width="102.047" height="52.9724" class="st7"/>
			<text x="4" y="798.6" class="st4" v:langID="1045"><v:paragraph/><v:tabList/>Parametry:<v:newlineChar/><tspan x="4"
						dy="1.2em" class="st5">Nazwa sieci</tspan>: „Test”<v:newlineChar/><tspan x="4" dy="1.2em" class="st5">Liczba punktów</tspan>: 4<v:newlineChar/><tspan
						x="4" dy="1.2em" class="st5">Liczba wymiarów</tspan>: 3<v:newlineChar/><tspan x="4" dy="1.2em" class="st5">Liczba gestów</tspan>: 4</text>		</g>
		<g id="shape11-70" v:mID="11" v:groupContext="shape" transform="translate(198.425,-557.661)">
			<title>45 degree double</title>
			<v:userDefs>
				<v:ud v:nameU="visVersion" v:val="VT0(14):26"/>
				<v:ud v:nameU="msvThemeColors" v:val="VT0(36):26"/>
				<v:ud v:nameU="msvThemeEffects" v:val="VT0(16):26"/>
			</v:userDefs>
			<g id="shadow11-71" v:groupContext="shadow" v:shadowOffsetX="1.44" v:shadowOffsetY="-1.44" v:shadowType="1"
					transform="matrix(1,0,0,1,1.44,1.44)" class="st1">
				<path d="M0 835.46 L6.43 829.02 L6.43 833.27 L28.06 833.27 L28.06 829.02 L34.49 835.46 L28.06 841.89 L28.06 837.64
							 L6.43 837.64 L6.43 841.89 L0 835.46 Z" class="st2"/>
			</g>
			<path d="M0 835.46 L6.43 829.02 L6.43 833.27 L28.06 833.27 L28.06 829.02 L34.49 835.46 L28.06 841.89 L28.06 837.64 L6.43
						 837.64 L6.43 841.89 L0 835.46 Z" class="st6"/>
		</g>
		<g id="shape12-75" v:mID="12" v:groupContext="shape" transform="translate(238.11,-426.969)">
			<title>Rectangle.12</title>
			<desc>Parametry: Gest 1: „Ręce do przodu” Gest 2: „Ręce na boki” Ge...</desc>
			<v:userDefs>
				<v:ud v:nameU="visVersion" v:val="VT0(14):26"/>
				<v:ud v:nameU="msvThemeColors" v:val="VT0(36):26"/>
				<v:ud v:nameU="msvThemeEffects" v:val="VT0(16):26"/>
			</v:userDefs>
			<v:textBlock v:margins="rect(4,4,4,4)" v:tabSpace="42.5197"/>
			<v:textRect cx="51.0236" cy="811.594" width="102.05" height="60.5906"/>
			<g id="shadow12-76" v:groupContext="shadow" v:shadowOffsetX="1.44" v:shadowOffsetY="-1.44" v:shadowType="1"
					transform="matrix(1,0,0,1,1.44,1.44)" class="st1">
				<rect x="0" y="781.299" width="102.047" height="60.5906" class="st2"/>
			</g>
			<rect x="0" y="781.299" width="102.047" height="60.5906" class="st7"/>
			<text x="4" y="789.99" class="st4" v:langID="1045"><v:paragraph/><v:tabList/>Parametry:<v:newlineChar/><tspan x="4"
						dy="1.2em" class="st5">Gest </tspan>1: „Ręce do przodu” <tspan x="4" dy="1.2em" class="st5">Gest </tspan>2: „Ręce na boki” <tspan
						x="4" dy="1.2em" class="st5">Gest </tspan>3: „Ręce jak <tspan x="4" dy="1.2em" class="st5">strongman</tspan>” <tspan
						x="4" dy="1.2em" class="st5">Gest </tspan>4: „Ręce na brzuchu”</text>		</g>
		<g id="shape13-86" v:mID="13" v:groupContext="shape" transform="translate(198.425,-450.831)">
			<title>45 degree double.13</title>
			<v:userDefs>
				<v:ud v:nameU="visVersion" v:val="VT0(14):26"/>
				<v:ud v:nameU="msvThemeColors" v:val="VT0(36):26"/>
				<v:ud v:nameU="msvThemeEffects" v:val="VT0(16):26"/>
			</v:userDefs>
			<g id="shadow13-87" v:groupContext="shadow" v:shadowOffsetX="1.44" v:shadowOffsetY="-1.44" v:shadowType="1"
					transform="matrix(1,0,0,1,1.44,1.44)" class="st1">
				<path d="M0 835.46 L6.43 829.02 L6.43 833.27 L28.06 833.27 L28.06 829.02 L34.49 835.46 L28.06 841.89 L28.06 837.64
							 L6.43 837.64 L6.43 841.89 L0 835.46 Z" class="st2"/>
			</g>
			<path d="M0 835.46 L6.43 829.02 L6.43 833.27 L28.06 833.27 L28.06 829.02 L34.49 835.46 L28.06 841.89 L28.06 837.64 L6.43
						 837.64 L6.43 841.89 L0 835.46 Z" class="st6"/>
		</g>
	</g>
</svg>
